<!-- icon666.com - MILLIONS vector ICONS FREE --><svg clip-rule="evenodd" fill-rule="evenodd" image-rendering="optimizeQuality" shape-rendering="geometricPrecision" text-rendering="geometricPrecision" viewBox="0 0 1.70666 1.70666" xmlns="http://www.w3.org/2000/svg" xmlns:xlink="http://www.w3.org/1999/xlink"><linearGradient id="id0" gradientUnits="userSpaceOnUse" x1=".853" x2=".853" y1=".239" y2="1.468"><stop offset="0" stop-color="#66c"></stop><stop offset=".509804" stop-color="#f0f"></stop><stop offset="1" stop-color="#f60"></stop></linearGradient><g id="Layer_x0020_1"><circle cx=".853" cy=".853" fill="url(#id0)" r=".853"></circle><path d="m.423937 1.20695h.857429c.0172598 0 .0329685-.00708268.0443701-.0184843.0114016-.0113976.0184803-.0271063.0184803-.0443622v-.0628543h-.30161v.0628504c0 .0140236-.0113701.0253898-.0253898.0253898h-.327772c-.0140197 0-.0253898-.0113661-.0253898-.0253898v-.0628504h-.30161v.0642087c0 .0168858.0069252.0322559.0180787.0434094s.0265276.0180827.0434134.0180827zm.429394-.537965c.0265394 0 .0505669.0107598.0679567.0281535.0173937.0173858.0281496.0414173.0281496.0679528 0 .0265354-.0107559.0505669-.0281496.0679567-.0173898.0173937-.0414173.0281496-.0679567.0281496s-.0505669-.0107559-.0679567-.0281496c-.0173937-.0173898-.0281496-.0414213-.0281496-.0679567s.0107559-.0505669.0281496-.0679528c.0173898-.0173937.0414173-.0281535.0679567-.0281535zm.0320551.0640551c-.00820079-.00820079-.0195354-.0132756-.0320551-.0132756s-.0238543.0050748-.0320551.0132756c-.00819685.00819685-.0132717.0195315-.0132717.0320512s.0050748.0238583.0132717.0320551c.00820079.00819685.0195354.0132717.0320551.0132717s.0238543-.0050748.0320551-.0132717c.00819685-.00819685.0132717-.0195354.0132717-.0320551s-.0050748-.0238543-.0132717-.0320512zm.0474764-.119894c.00422835.00220472.0083622.00459843.0123819.00717323l.038685-.0223346-.00005512-.00009449c.00044488-.00025984.0008937-.00049606.00134646-.00072441.00038976-.00019291.00077559-.00037795.00116929-.00055118l.00003543-.00001181.00042126-.0001811c.0112717-.00557874.0237402-.0065315.0350906-.00349213.011311.00302756.0215866.01.0285472.0202913.00963386.0148898.0264252.0415551.0327913.0568465.00556299.0112559.00651575.0237165.00348031.0350551-.00739764.0276063-.0397795.0399331-.0620551.0527913.00022835.00482283.00022441.00959055 0 .0144134l.0386063.0222874c.0120472.00695276.0201299.0181024.023437.0304488.00329921.0123268.00188583.0259803-.0050315.0379685l.0000748.00009449c-.00029921.00051575-.00061024.00101181-.00093701.0015l-.0284764.0493189c-.00690551.0119606-.0180472.0200079-.0304291.0233228-.0123661.00330709-.0260433.00190157-.0380394-.00502756l-.0387047-.0223465c-.00202756.00129921-.00407087.00254331-.00612205.00372835-.00202756.00117717-.00410236.00231102-.00621654.00341732v.0447087c0 .0275906-.0226693.0502047-.0502087.0502047h-.0586811c-.0275945 0-.0501732-.0225945-.0501732-.0501732v-.0447441c-.00421654-.00219685-.00833465-.0045748-.0123386-.00714173l-.0386732.0223307v.00007087c-.00044488.00025591-.0008937.00049213-.00134646.00072047-.00038976.00019291-.00077559.00038189-.00116929.00055118l-.00003543.00001575-.00042126.00017717c-.0112717.00557874-.0237402.00653543-.0350906.00349606-.0120157-.00322441-.0228622-.0108898-.029811-.0222598-.0103543-.0170984-.0240787-.0369882-.0315276-.0548819-.00556693-.0112559-.00651575-.0237165-.00348031-.0350551.00330709-.0123425.0113858-.0234803.0234213-.0304252l.0386339-.0223071c-.00022441-.00484252-.00022441-.00962598 0-.0144724l-.0386063-.0222874c-.0120512-.00695669-.0201299-.0181063-.023437-.0304488-.00302362-.0112874-.00209055-.023689.00339764-.0348976.00870079-.0178346.0209016-.0365394.0309724-.0539843.00690551-.0119606.0180472-.0200039.0304291-.0233228.0109331-.0029252.0228937-.00216142.0338071.00284252.014126.00647638.0292717.0167008.0428937.024563.00203937-.00130709.00409449-.00255512.00615748-.00375197.0020315-.00117323.00411024-.00231496.00622441-.00342126v-.0447126c0-.0275906.0226693-.0502047.0502087-.0502047h.0586811c.0275945 0 .0501732.0225945.0501732.0501732v.0447441zm-.032815.0404331c-.0104016-.00317717-.0179685-.0128465-.0179685-.0242835v-.0602874h-.0574961v.0597047c.00023228.0102913-.00585039.0201181-.0159764.0241614-.00064567-.00052362-.0141417.00666535-.0156417.0075315-.00457874.00264961-.00884252.00547244-.0127559.00843701-.00794882.00746457-.0201417.00920472-.0300709.00347244l.00005512-.00009449-.0507362-.0292953c-.00054331-.00024803-.00108268-.00051969-.00161417-.00081102l-.0281614.0487795c-.00018898.00038583-.00038583.00076772-.00059843.00114567l.0501417.0289488c.0224252.0102244.0115394.0387087.0143504.0600669.0021063.0104016-.0025.0214291-.0121969.0270236l-.00010236-.00006693-.0522402.0301614.0282087.0488504c.00022441.00033071.00044095.00066929.00064961.00101575.0167835-.0088189.0341378-.0196496.0507008-.0292126.00891732-.00603937.0210669-.00592913.0299685.00110236l-.00006299.00009055c.00437795.00345276.00921654.00672441.0144724.00976378.00451969.00261417.00908268.00489764.0136417.0068189.0104016.00317717.0179685.0128465.0179685.0242874v.0602835h.0574961v-.0597087c-.00022835-.0102953.00585827-.020122.0159843-.0241614l.00008268.00007874c.00519291-.00207087.0103937-.00461811.0155433-.00759843.00457874-.00264961.00884252-.00547244.0127598-.00844488.00794882-.00746457.0201457-.00920472.0300787-.00347244v.00007087l.0522638.0301772.028189-.0488268c.00018898-.00038189.00038583-.00076772.00059843-.00114567l-.0501457-.0289488c-.00999213-.00455512-.0162244-.0152913-.0145866-.0267126l.00004331.00000787c.00123228-.00862205.00155118-.0174331.00092913-.026122-.00017323-.00246457-.00042126-.00488189-.00072835-.00724016-.0021063-.0103976.0025-.0214252.0121969-.0270236l.0000315.00005118.0512402-.0295866c.00033071-.00022047.00066929-.00044095.00101575-.00064567l-.0281575-.0487638c-.00022441-.00033071-.00044095-.00066929-.00064961-.00101181-.0165906.00871654-.0337913.0193898-.0502126.0288701-.0080748.00575591-.0189843.00633071-.0276969.00114173-.0112717-.00669291-.017811-.0130945-.030811-.0185787zm-.0172992.308169h-.00008268zm0 0-.00009449-.00009449v.00008268l.00001181.00001181zm-.00009449-.00009449-.00026772-.00027165-.00005906.00002756.00032677.00032677v-.00008268zm.109169.119594h-.276984v.0374606h.276984zm-.502067-.632315h.72715c.0197992 0 .0377874.00808268.0508071.0211063.0130197.0130197.0211063.0310039.0211063.0508071v.509622h.0807874c.0140236 0 .0253937.0113661.0253937.0253898v.0882441c0 .0312717-.0127795.059685-.0333622.0802677-.0205827.0205787-.0489961.0333583-.0802717.0333583h-.857429c-.0308976 0-.0589764-.012626-.079315-.0329606-.0203346-.0203346-.0329606-.0484173-.0329606-.079311v-.0895984c0-.0140236.0113701-.0253898.0253937-.0253898h.0807874v-.509622c0-.0198031.00808661-.0377874.0211063-.0508071.0130197-.0130236.0310079-.0211063.0508071-.0211063zm.74828.581535v-.509622c0-.0057874-.00238583-.0110669-.00622441-.0149055-.00383858-.00383858-.00911811-.00622835-.0149055-.00622835h-.72715c-.0057874 0-.0110669.00238976-.0149055.00622835-.00383858.00383858-.00622441.00911811-.00622441.0149055v.509622h.220819.327772.220819z" fill="#fff" fill-rule="nonzero"></path></g></svg>